<?xml version="1.0" encoding="UTF-8"?>
<svg id="Layer_1" data-name="Layer 1" xmlns="http://www.w3.org/2000/svg" version="1.1" viewBox="0 0 1200 350">
  <defs>
    <style>
      .cls-1 {
        fill: none;
      }

      .cls-1, .cls-2, .cls-3, .cls-4 {
        stroke-width: 0px;
      }

      .cls-2 {
        fill: #fff;
      }

      .cls-3 {
        fill: #e96700;
      }

      .cls-4 {
        fill: #c2c2c2;
      }
    </style>
  </defs>
  <rect class="cls-1" y="0" width="1200" height="350"/>
  <g>
    <path class="cls-2" d="M84.7,163.9c0,20.9-16,34.1-41.2,34.1h-13v22.2H0v-90.4h43.5c25.2,0,41.2,13.2,41.2,34.1h0ZM54,163.9c0-6.6-4-10.6-12.4-10.6h-11.1v21.2h11.1c8.4,0,12.4-4,12.4-10.6Z"/>
    <path class="cls-2" d="M92.3,175c0-27.4,21.6-47.2,51-47.2s51,19.9,51,47.2-21.6,47.2-51,47.2-51-19.9-51-47.2ZM163.6,175c0-14.1-9-22.6-20.3-22.6s-20.3,8.5-20.3,22.6,9,22.6,20.3,22.6,20.3-8.5,20.3-22.6Z"/>
    <path class="cls-2" d="M244.1,197.5h-8.3v22.7h-30.5v-90.4h43.5c25.2,0,41.2,13.2,41.2,34.1s-6.2,22.9-17,28.4l19,27.9h-32.5l-15.4-22.7h0ZM247,153.3h-11.1v21.2h11.1c8.4,0,12.4-4,12.4-10.6s-4-10.6-12.4-10.6Z"/>
    <path class="cls-2" d="M319.9,153.4h-26.5v-23.6h83.4v23.6h-26.5v66.7h-30.5v-66.7Z"/>
    <path class="cls-2" d="M441.8,204.4h-34.3l-6.1,15.8h-31l39.5-90.4h30l39.5,90.4h-31.5l-6.1-15.8h0ZM433.4,182.5l-8.8-22.7-8.8,22.7h17.6Z"/>
    <path class="cls-2" d="M484.2,129.8h30.5v66.7h40.8v23.6h-71.3v-90.4h0Z"/>
  </g>
  <g>
    <polygon class="cls-3" points="1015.5 316.7 881 316.7 966.2 260.2 1015.5 260.2 1015.5 316.7"/>
    <rect class="cls-4" x="585.2" y="33.3" width="197.1" height="56.6"/>
    <polygon class="cls-3" points="782.3 169.3 782.3 226.2 643.6 226.2 643.6 316.7 585.2 316.7 585.2 169.3 782.3 169.3"/>
    <path class="cls-3" d="M1043.5,33.6h75.2l.3,56.6h-75.5c-16.9,0-28.3,12.6-28.3,28.3s2.4,14.7,8.1,20.5,12,8.4,20.2,8.4h69.2c24.7,0,45.7,9,61.7,24.7,17.2,16.6,25.6,37.9,25.6,59.9,0,42.4-34,84.9-87.3,84.9h-108l-10.8-56.6,118.9-.3c17.2.3,28.6-12.6,28.6-28.3s-3-14.1-8.7-20.2c-6-5.7-11.7-8.4-19.9-8.4h-69.2c-24.4,0-45.4-9-61.7-24.7-17.2-16.6-25.3-38.5-25.3-60.2.3-41.8,34-84.6,87-84.6h0Z"/>
    <path class="cls-2" d="M1012.2,229.2c-7.2,16.6-17.2,32.2-31,45.4-25.6,25.9-63.5,42.1-102.6,42.1h-98.1v-56.6h98.4c23.2,0,45.4-8.7,60.8-24.4,16.2-16.6,25.3-38.8,25.3-60.8s-9-43.9-25.9-60.5c-15.9-15.6-36.4-24.7-60.5-24.7h-293.1v-56.6h292.8c62.9,0,111.6,39.1,133.3,87.6,8.1,17.8,11.4,35.5,11.4,54.2.3,18.7-2.7,36.7-10.8,54.2h0Z"/>
    <path class="cls-3" d="M894.6,200c-2.1,1.2-4.2,2.4-6,3.6-7.5,4.2-15.6,7.8-24.1,9.6-4.2.9-8.4,1.5-12.9,1.5-8.4-.3-15.6-3-21.4-9.3-3.3-3.9-5.7-8.4-7.2-13.5-.6-2.1-1.2-4.2-1.8-6.3h.3c.3.3.3.6.6.9,2.1,4.2,4.5,8.4,8.1,11.7,3.3,3.3,7.5,5.4,12.3,6,3.9.3,7.8-.3,11.4-1.5,5.4-1.8,10.5-4.8,15.3-8.1,6.9-4.5,13.8-9.3,21.1-14.1,3.6-2.4,7.8-4.5,12-5.4,5.7-1.5,11.1-1.2,16.2,1.8,4.5,2.7,7.2,6.9,7.8,12,.6,4.5-.9,9-3,12.9-6,10.5-14.7,18.1-26.2,22.9-4.5,2.1-9.3,3.3-14.4,3.9-3,.3-6,.3-9,.3-6.3,0-12.3-1.5-18.4-3.6-3-1.2-6-2.4-8.7-4.2,19.6,1.2,36.7-5.4,52.1-17.5,2.4,3.9,5.1,8.1,7.5,12.3.9-.6,1.8-1.2,2.7-1.8,2.1-1.5,1.8-.6,1.2-3-.9-3.9-1.8-7.8-3-11.7-.3-.6,0-1.2.6-1.8,2.1-1.8,4.2-3.6,6.6-5.4.6-.6,1.5-1.2,1.8-2.1.6-1.2,0-2.4-1.5-2.1-1.2,0-2.4.3-3.3.9-2.7,1.5-5.7,3-8.4,4.8-.6.3-1.2.3-1.8.3-5.1-1.5-10.2-3-15.3-4.5-.6-.3-1.2-.3-1.8.3-1.2.9-2.4,1.5-3.6,2.4,4.5,2.7,9.3,5.1,14.1,7.8Z"/>
    <path class="cls-2" d="M928.6,160.3c-1.2-.6-2.7-1.2-3.9-1.8-3-1.5-6.3-2.1-9.6-2.1s-7.2.9-10.8,2.1c-3.3,1.2-6.6,3-9.3,4.8s-5.1,3.6-7.5,5.4c-2.1,1.5-3.9,3-6,4.5-3.9,3-7.8,6-11.7,8.7-3.6,2.4-7.2,4.8-11.1,6.9-3,1.5-5.7,2.7-9,3.6-5.4,1.5-10.8,1.2-15.9-.9-4.2-1.5-7.2-4.8-9-8.7-2.4-4.5-3.3-9-3.6-14.1,0-.9,0-1.8.3-2.7.3.9.3,2.1.6,3,.6,2.7,1.5,5.4,3,7.8,1.8,2.7,4.2,4.5,7.8,4.8,2.7.3,5.1-.3,7.8-1.2,4.2-1.5,8.1-3.9,12-6.6,1.8-1.5,3.9-2.7,5.7-4.2,3.9-3.3,7.8-6.3,11.7-9.6,3-2.7,6.3-5.4,9.3-8.1,3.6-3,7.2-5.7,11.4-7.8,5.1-2.4,10.2-4.5,15.6-5.1,4.8-.3,9.3.6,12.9,3.6,3,2.4,5.1,5.4,6.6,8.7,1.2,2.7,2.1,5.4,3,8.1-.3.3-.3.6-.3.9h0Z"/>
    <path class="cls-3" d="M821.7,160.3c1.2.6,2.1,1.2,3,1.8,2.1.9,4.5.9,6.6,0,2.7-1.2,4.8-2.7,6.9-4.8,4.5-4.8,9-9.3,13.2-14.1,4.5-5.1,9.3-9.9,14.7-14.1,3.9-3,8.1-5.4,12.9-6.6,6.3-1.8,12.6-1.2,18.7,1.5,5.1,2.1,9.6,5.4,13.8,9.3l.3.3v.3c-.9-.3-1.5-.6-2.4-1.2-6.9-2.7-13.5-2.1-20.2.6-5.4,2.4-10.2,5.4-14.4,9.3-7.8,6.9-15.6,13.8-23.2,21.1-3,2.7-6.3,5.7-10.2,7.5-2.1,1.2-4.5,1.8-6.9,1.8s-5.7-.9-7.8-3c-2.7-2.7-4.2-6-5.1-9.6Z"/>
    <path class="cls-2" d="M863.3,120.2c-1.8,1.8-3.6,3.3-5.4,5.1-3.3,3.6-6.3,7.2-9.3,10.8-3.3,3.9-6.3,7.8-9.6,11.7-2.4,2.7-4.8,5.4-7.8,7.5-1.5,1.2-3.3,2.1-5.1,1.8-.9,0-1.8-.3-2.7-.6-.6,0-.6-.3-.3-.9,1.5-3,2.7-6,4.2-9,1.8-3.3,3.9-6.3,6.3-9,3.3-3.6,6.9-6.9,10.8-9.3,3.9-2.4,7.8-4.5,12-6,2.4-1.2,4.8-1.5,6.9-2.1h0Z"/>
    <polygon class="cls-3" points="1178.3 89.8 1154.3 89.8 1154.3 33.3 1178.3 33.3 1178.3 89.8"/>
    <polygon class="cls-3" points="1197.9 89.8 1181.9 89.8 1181.9 33.3 1197.9 33.3 1197.9 89.8"/>
    <polygon class="cls-3" points="1149.7 89.8 1123 89.8 1123 33.3 1149.7 33.3 1149.7 89.8"/>
  </g>
  <rect class="cls-1" y="0" width="1200" height="350"/>
</svg>