<?xml version="1.0" encoding="utf-8"?>
<!-- Generator: Adobe Illustrator 27.8.1, SVG Export Plug-In . SVG Version: 6.00 Build 0)  -->
<svg version="1.1" id="Layer_1" xmlns:xodm="http://www.corel.com/coreldraw/odm/2003"
	 xmlns="http://www.w3.org/2000/svg" xmlns:xlink="http://www.w3.org/1999/xlink" x="0px" y="0px" viewBox="0 0 204.3 115"
	 style="enable-background:new 0 0 204.3 115;" xml:space="preserve">
<style type="text/css">
	.st0{fill:#E96700;}
	.st1{fill:#C2C2C2;}
	.st2{fill:#073F7D;}
</style>
<polygon class="st0" points="142.9,94.3 98.2,94.3 126.5,75.5 142.9,75.5 "/>
<rect x="-0.1" y="0.1" class="st1" width="65.5" height="18.8"/>
<polygon class="st0" points="65.4,45.3 65.4,64.2 19.3,64.2 19.3,94.3 -0.1,94.3 -0.1,45.3 "/>
<path class="st0" d="M152.2,0.2h25l0.1,18.8h-25.1c-5.6,0-9.4,4.2-9.4,9.4c0,2.5,0.8,4.9,2.7,6.8c1.9,1.9,4,2.8,6.7,2.8h23
	c8.2,0,15.2,3,20.5,8.2c5.7,5.5,8.5,12.6,8.5,19.9c0,14.1-11.3,28.2-29,28.2h-35.9l-3.6-18.8l39.5-0.1c5.7,0.1,9.5-4.2,9.5-9.4
	c0-2.5-1-4.7-2.9-6.7c-2-1.9-3.9-2.8-6.6-2.8h-23c-8.1,0-15.1-3-20.5-8.2c-5.7-5.5-8.4-12.8-8.4-20C123.4,14.4,134.6,0.2,152.2,0.2
	L152.2,0.2z"/>
<path class="st2" d="M141.8,65.2c-2.4,5.5-5.7,10.7-10.3,15.1c-8.5,8.6-21.1,14-34.1,14H64.8V75.5h32.7c7.7,0,15.1-2.9,20.2-8.1
	c5.4-5.5,8.4-12.9,8.4-20.2s-3-14.6-8.6-20.1c-5.3-5.2-12.1-8.2-20.1-8.2H0V0.1h97.3c20.9,0,37.1,13,44.3,29.1
	c2.7,5.9,3.8,11.8,3.8,18C145.5,53.4,144.5,59.4,141.8,65.2L141.8,65.2z"/>
<path class="st0" d="M102.7,55.5c-0.7,0.4-1.4,0.8-2,1.2c-2.5,1.4-5.2,2.6-8,3.2c-1.4,0.3-2.8,0.5-4.3,0.5c-2.8-0.1-5.2-1-7.1-3.1
	c-1.1-1.3-1.9-2.8-2.4-4.5c-0.2-0.7-0.4-1.4-0.6-2.1h0.1c0.1,0.1,0.1,0.2,0.2,0.3c0.7,1.4,1.5,2.8,2.7,3.9c1.1,1.1,2.5,1.8,4.1,2
	c1.3,0.1,2.6-0.1,3.8-0.5c1.8-0.6,3.5-1.6,5.1-2.7c2.3-1.5,4.6-3.1,7-4.7c1.2-0.8,2.6-1.5,4-1.8c1.9-0.5,3.7-0.4,5.4,0.6
	c1.5,0.9,2.4,2.3,2.6,4c0.2,1.5-0.3,3-1,4.3c-2,3.5-4.9,6-8.7,7.6c-1.5,0.7-3.1,1.1-4.8,1.3c-1,0.1-2,0.1-3,0.1
	c-2.1,0-4.1-0.5-6.1-1.2c-1-0.4-2-0.8-2.9-1.4c6.5,0.4,12.2-1.8,17.3-5.8c0.8,1.3,1.7,2.7,2.5,4.1c0.3-0.2,0.6-0.4,0.9-0.6
	c0.7-0.5,0.6-0.2,0.4-1c-0.3-1.3-0.6-2.6-1-3.9c-0.1-0.2,0-0.4,0.2-0.6c0.7-0.6,1.4-1.2,2.2-1.8c0.2-0.2,0.5-0.4,0.6-0.7
	c0.2-0.4,0-0.8-0.5-0.7c-0.4,0-0.8,0.1-1.1,0.3c-0.9,0.5-1.9,1-2.8,1.6c-0.2,0.1-0.4,0.1-0.6,0.1c-1.7-0.5-3.4-1-5.1-1.5
	c-0.2-0.1-0.4-0.1-0.6,0.1c-0.4,0.3-0.8,0.5-1.2,0.8C99.5,53.8,101.1,54.6,102.7,55.5z"/>
<path class="st2" d="M114,42.3c-0.4-0.2-0.9-0.4-1.3-0.6c-1-0.5-2.1-0.7-3.2-0.7c-1.3,0-2.4,0.3-3.6,0.7c-1.1,0.4-2.2,1-3.1,1.6
	s-1.7,1.2-2.5,1.8c-0.7,0.5-1.3,1-2,1.5c-1.3,1-2.6,2-3.9,2.9c-1.2,0.8-2.4,1.6-3.7,2.3c-1,0.5-1.9,0.9-3,1.2
	c-1.8,0.5-3.6,0.4-5.3-0.3c-1.4-0.5-2.4-1.6-3-2.9c-0.8-1.5-1.1-3-1.2-4.7c0-0.3,0-0.6,0.1-0.9c0.1,0.3,0.1,0.7,0.2,1
	c0.2,0.9,0.5,1.8,1,2.6c0.6,0.9,1.4,1.5,2.6,1.6c0.9,0.1,1.7-0.1,2.6-0.4c1.4-0.5,2.7-1.3,4-2.2c0.6-0.5,1.3-0.9,1.9-1.4
	c1.3-1.1,2.6-2.1,3.9-3.2c1-0.9,2.1-1.8,3.1-2.7c1.2-1,2.4-1.9,3.8-2.6c1.7-0.8,3.4-1.5,5.2-1.7c1.6-0.1,3.1,0.2,4.3,1.2
	c1,0.8,1.7,1.8,2.2,2.9c0.4,0.9,0.7,1.8,1,2.7C114,42.1,114,42.2,114,42.3L114,42.3z"/>
<path class="st0" d="M78.5,42.3c0.4,0.2,0.7,0.4,1,0.6c0.7,0.3,1.5,0.3,2.2,0c0.9-0.4,1.6-0.9,2.3-1.6c1.5-1.6,3-3.1,4.4-4.7
	c1.5-1.7,3.1-3.3,4.9-4.7c1.3-1,2.7-1.8,4.3-2.2c2.1-0.6,4.2-0.4,6.2,0.5c1.7,0.7,3.2,1.8,4.6,3.1l0.1,0.1c0,0,0,0,0,0.1
	c-0.3-0.1-0.5-0.2-0.8-0.4c-2.3-0.9-4.5-0.7-6.7,0.2c-1.8,0.8-3.4,1.8-4.8,3.1c-2.6,2.3-5.2,4.6-7.7,7c-1,0.9-2.1,1.9-3.4,2.5
	c-0.7,0.4-1.5,0.6-2.3,0.6c-1,0-1.9-0.3-2.6-1C79.3,44.6,78.8,43.5,78.5,42.3z"/>
<path class="st2" d="M92.3,29c-0.6,0.6-1.2,1.1-1.8,1.7c-1.1,1.2-2.1,2.4-3.1,3.6c-1.1,1.3-2.1,2.6-3.2,3.9
	c-0.8,0.9-1.6,1.8-2.6,2.5c-0.5,0.4-1.1,0.7-1.7,0.6c-0.3,0-0.6-0.1-0.9-0.2c-0.2,0-0.2-0.1-0.1-0.3c0.5-1,0.9-2,1.4-3
	c0.6-1.1,1.3-2.1,2.1-3c1.1-1.2,2.3-2.3,3.6-3.1c1.3-0.8,2.6-1.5,4-2C90.8,29.3,91.6,29.2,92.3,29L92.3,29z"/>
<polygon class="st0" points="197,18.9 189,18.9 189,0.1 197,0.1 "/>
<polygon class="st0" points="203.5,18.9 198.2,18.9 198.2,0.1 203.5,0.1 "/>
<polygon class="st0" points="187.5,18.9 178.6,18.9 178.6,0.1 187.5,0.1 "/>
<g>
	<path class="st0" d="M3.5,108.9v1.4h3.4v2H3.5v2.6H0.8v-8h6.5v2H3.5z"/>
	<path class="st0" d="M13.3,113.5h-3.1l-0.5,1.4H7l3.5-8h2.7l3.5,8h-2.8L13.3,113.5z M12.6,111.5l-0.8-2l-0.8,2H12.6z"/>
	<path class="st0" d="M16.4,113.9l1.5-1.7c0.4,0.5,0.8,0.8,1.3,0.8c0.6,0,0.9-0.3,0.9-1v-3.1h-2.7v-2h5.4v4.9c0,2.2-1.2,3.3-3.3,3.3
		C18.1,115,17,114.6,16.4,113.9z"/>
	<path class="st0" d="M29.2,113.5h-3.1l-0.5,1.4h-2.8l3.5-8H29l3.5,8h-2.8L29.2,113.5z M28.4,111.5l-0.8-2l-0.8,2H28.4z"/>
	<path class="st0" d="M36.4,112.8h-0.7v2H33v-8h3.9c2.2,0,3.7,1.2,3.7,3c0,1.2-0.6,2-1.5,2.5l1.7,2.5h-2.9L36.4,112.8z M36.7,108.9
		h-1v1.9h1c0.7,0,1.1-0.4,1.1-0.9C37.8,109.3,37.4,108.9,36.7,108.9z"/>
	<path class="st0" d="M45,106.8h4c2.7,0,4.5,1.5,4.5,4s-1.8,4-4.5,4h-4V106.8z M48.8,112.7c1.1,0,1.9-0.7,1.9-1.9
		c0-1.2-0.8-1.9-1.9-1.9h-1.1v3.8H48.8z"/>
	<path class="st0" d="M61.1,112.8v2h-6.7v-8H61v2h-3.9v0.9h3.4v2h-3.4v1.1H61.1z"/>
	<path class="st0" d="M75.1,106.8l-2.6,8h-2.9l-1.3-4.3l-1.4,4.3H64l-2.6-8h2.8l1.4,4.6l1.5-4.6h2.5l1.4,4.6l1.5-4.6H75.1z"/>
	<path class="st0" d="M75.7,106.8h2.7v8h-2.7V106.8z"/>
	<path class="st0" d="M82.7,114.2l0.9-2c0.8,0.4,1.8,0.7,2.7,0.7c0.8,0,1-0.2,1-0.4c0-1-4.4-0.2-4.4-3.2c0-1.5,1.3-2.7,3.7-2.7
		c1.1,0,2.2,0.2,3,0.7l-0.8,2c-0.8-0.4-1.5-0.6-2.2-0.6c-0.8,0-1,0.2-1,0.5c0,1,4.4,0.2,4.4,3.1c0,1.5-1.3,2.7-3.7,2.7
		C84.9,115,83.5,114.7,82.7,114.2z"/>
	<path class="st0" d="M97.4,112.8v2h-6.7v-8h6.5v2h-3.9v0.9h3.4v2h-3.4v1.1H97.4z"/>
	<path class="st0" d="M97.5,113.9l1.5-1.7c0.4,0.5,0.8,0.8,1.3,0.8c0.6,0,0.9-0.3,0.9-1v-3.1h-2.7v-2h5.4v4.9c0,2.2-1.2,3.3-3.3,3.3
		C99.3,115,98.2,114.6,97.5,113.9z"/>
	<path class="st0" d="M110.4,113.5h-3.1l-0.5,1.4H104l3.5-8h2.7l3.5,8h-2.8L110.4,113.5z M109.6,111.5l-0.8-2l-0.8,2H109.6z"/>
	<path class="st0" d="M122.1,106.8v8h-2.7v-3h-2.5v3h-2.7v-8h2.7v2.8h2.5v-2.8H122.1z"/>
	<path class="st0" d="M125.1,108.9h-2.4v-2.1h7.4v2.1h-2.4v5.9H125L125.1,108.9L125.1,108.9z"/>
	<path class="st0" d="M137.6,112.8v2h-6.7v-8h6.5v2h-3.9v0.9h3.4v2h-3.4v1.1H137.6z"/>
	<path class="st0" d="M142.1,112.8h-0.7v2h-2.7v-8h3.9c2.2,0,3.7,1.2,3.7,3c0,1.2-0.6,2-1.5,2.5l1.7,2.5h-2.9L142.1,112.8z
		 M142.3,108.9h-1v1.9h1c0.7,0,1.1-0.4,1.1-0.9C143.4,109.3,143.1,108.9,142.3,108.9z"/>
	<path class="st0" d="M152.6,113.5h-3.1l-0.5,1.4h-2.8l3.5-8h2.7l3.5,8h-2.8L152.6,113.5z M151.9,111.5l-0.8-2l-0.8,2H151.9z"/>
	<path class="st0" d="M165.2,110.6h2.4v3.4c-1,0.7-2.3,1-3.5,1c-2.6,0-4.5-1.7-4.5-4.2s1.9-4.2,4.5-4.2c1.6,0,2.9,0.6,3.7,1.5
		l-1.7,1.5c-0.5-0.6-1.1-0.9-1.8-0.9c-1.2,0-2,0.8-2,2s0.8,2,1.9,2c0.3,0,0.7-0.1,1-0.2L165.2,110.6L165.2,110.6z"/>
	<path class="st0" d="M172.1,112.8h-0.7v2h-2.7v-8h3.9c2.2,0,3.7,1.2,3.7,3c0,1.2-0.6,2-1.5,2.5l1.7,2.5h-2.9L172.1,112.8z
		 M172.4,108.9h-1v1.9h1c0.7,0,1.1-0.4,1.1-0.9C173.5,109.3,173.1,108.9,172.4,108.9z"/>
	<path class="st0" d="M176.9,110.8c0-2.4,1.9-4.2,4.5-4.2s4.5,1.8,4.5,4.2c0,2.4-1.9,4.2-4.5,4.2C178.8,115,176.9,113.3,176.9,110.8
		z M183.3,110.8c0-1.3-0.8-2-1.8-2s-1.8,0.8-1.8,2c0,1.3,0.8,2,1.8,2C182.5,112.9,183.3,112.1,183.3,110.8z"/>
	<path class="st0" d="M186.9,111.2v-4.4h2.7v4.3c0,1.2,0.5,1.7,1.2,1.7c0.8,0,1.2-0.5,1.2-1.7v-4.3h2.7v4.4c0,2.4-1.4,3.8-3.9,3.8
		C188.4,115,186.9,113.7,186.9,111.2z"/>
	<path class="st0" d="M203.5,109.9c0,1.9-1.4,3-3.7,3h-1.2v2H196v-8h3.9C202.1,106.8,203.5,108,203.5,109.9z M200.8,109.9
		c0-0.6-0.4-0.9-1.1-0.9h-1v1.9h1C200.4,110.8,200.8,110.4,200.8,109.9z"/>
</g>
</svg>
