<?xml version="1.0" encoding="UTF-8"?>
<svg id="Layer_1" data-name="Layer 1" xmlns="http://www.w3.org/2000/svg" version="1.1" viewBox="0 0 1200 350">
  <defs>
    <style>
      .cls-1 {
        fill: #000;
      }

      .cls-1, .cls-2, .cls-3, .cls-4, .cls-5 {
        stroke-width: 0px;
      }

      .cls-2 {
        fill: none;
      }

      .cls-3 {
        fill: #e96700;
      }

      .cls-4 {
        fill: #c2c2c2;
      }

      .cls-5 {
        fill: #073f7d;
      }
    </style>
  </defs>
  <rect class="cls-2" y="0" width="1200" height="350"/>
  <g>
    <path class="cls-1" d="M479.3,158c0,32-24.5,52.2-63,52.2h-20v34h-46.6V105.8h66.6c38.5,0,63,20.2,63,52.2h0ZM432.2,158c0-10.1-6.1-16.2-19-16.2h-17v32.4h17c12.8,0,19-6.1,19-16.2Z"/>
    <path class="cls-1" d="M490.9,175c0-41.9,33-72.3,78.1-72.3s78.1,30.4,78.1,72.3-33,72.3-78.1,72.3-78.1-30.4-78.1-72.3ZM600,175c0-21.5-13.8-34.6-31-34.6s-31,13-31,34.6,13.8,34.6,31,34.6,31-13,31-34.6Z"/>
    <path class="cls-1" d="M723.3,209.4h-12.6v34.8h-46.6V105.8h66.6c38.5,0,63,20.2,63,52.2s-9.5,35-26.1,43.5l29.1,42.7h-49.8l-23.5-34.8h0ZM727.7,141.8h-17v32.4h17c12.8,0,19-6.1,19-16.2s-6.1-16.2-19-16.2Z"/>
    <path class="cls-1" d="M839.3,142h-40.5v-36.2h127.7v36.2h-40.5v102.2h-46.6v-102.2Z"/>
    <path class="cls-1" d="M1025.9,220.1h-52.6l-9.3,24.1h-47.4l60.5-138.3h45.8l60.5,138.3h-48.2l-9.3-24.1h0ZM1013.1,186.5l-13.4-34.8-13.4,34.8h26.9Z"/>
    <path class="cls-1" d="M1090.9,105.8h46.6v102.2h62.4v36.2h-109.1V105.8h0Z"/>
  </g>
  <g>
    <polygon class="cls-3" points="218.3 246.9 150 246.9 193.2 218.2 218.3 218.2 218.3 246.9"/>
    <rect class="cls-4" y="103.1" width="100" height="28.7"/>
    <polygon class="cls-3" points="100 172.1 100 200.9 29.6 200.9 29.6 246.9 0 246.9 0 172.1 100 172.1"/>
    <path class="cls-3" d="M232.4,103.3h38.2l.2,28.7h-38.3c-8.5,0-14.3,6.4-14.3,14.3s1.2,7.5,4.1,10.4,6.1,4.3,10.2,4.3h35.1c12.5,0,23.2,4.6,31.3,12.5,8.7,8.4,13,19.2,13,30.4,0,21.5-17.2,43-44.3,43h-54.8l-5.5-28.7,60.3-.2c8.7.2,14.5-6.4,14.5-14.3s-1.5-7.2-4.4-10.2c-3.1-2.9-6-4.3-10.1-4.3h-35.1c-12.4,0-23-4.6-31.3-12.5-8.7-8.4-12.8-19.5-12.8-30.5.2-21.2,17.2-42.9,44.1-42.9h0Z"/>
    <path class="cls-5" d="M216.6,202.5c-3.7,8.4-8.7,16.3-15.7,23-13,13.1-32.2,21.4-52,21.4h-49.8v-28.7h49.9c11.8,0,23-4.4,30.8-12.4,8.2-8.4,12.8-19.7,12.8-30.8s-4.6-22.3-13.1-30.7c-8.1-7.9-18.5-12.5-30.7-12.5H.2v-28.7h148.5c31.9,0,56.6,19.8,67.6,44.4,4.1,9,5.8,18,5.8,27.5.2,9.5-1.4,18.6-5.5,27.5h0Z"/>
    <path class="cls-3" d="M156.9,187.7c-1.1.6-2.1,1.2-3.1,1.8-3.8,2.1-7.9,4-12.2,4.9-2.1.5-4.3.8-6.6.8-4.3-.2-7.9-1.5-10.8-4.7-1.7-2-2.9-4.3-3.7-6.9-.3-1.1-.6-2.1-.9-3.2h.2c.2.2.2.3.3.5,1.1,2.1,2.3,4.3,4.1,6,1.7,1.7,3.8,2.7,6.3,3.1,2,.2,4-.2,5.8-.8,2.7-.9,5.3-2.4,7.8-4.1,3.5-2.3,7-4.7,10.7-7.2,1.8-1.2,4-2.3,6.1-2.7,2.9-.8,5.6-.6,8.2.9,2.3,1.4,3.7,3.5,4,6.1.3,2.3-.5,4.6-1.5,6.6-3.1,5.3-7.5,9.2-13.3,11.6-2.3,1.1-4.7,1.7-7.3,2-1.5.2-3.1.2-4.6.2-3.2,0-6.3-.8-9.3-1.8-1.5-.6-3.1-1.2-4.4-2.1,9.9.6,18.6-2.7,26.4-8.9,1.2,2,2.6,4.1,3.8,6.3.5-.3.9-.6,1.4-.9,1.1-.8.9-.3.6-1.5-.5-2-.9-4-1.5-6-.2-.3,0-.6.3-.9,1.1-.9,2.1-1.8,3.4-2.7.3-.3.8-.6.9-1.1.3-.6,0-1.2-.8-1.1-.6,0-1.2.2-1.7.5-1.4.8-2.9,1.5-4.3,2.4-.3.2-.6.2-.9.2-2.6-.8-5.2-1.5-7.8-2.3-.3-.2-.6-.2-.9.2-.6.5-1.2.8-1.8,1.2,2.3,1.4,4.7,2.6,7.2,4Z"/>
    <path class="cls-5" d="M174.1,167.5c-.6-.3-1.4-.6-2-.9-1.5-.8-3.2-1.1-4.9-1.1s-3.7.5-5.5,1.1c-1.7.6-3.4,1.5-4.7,2.4s-2.6,1.8-3.8,2.7c-1.1.8-2,1.5-3.1,2.3-2,1.5-4,3.1-6,4.4-1.8,1.2-3.7,2.4-5.6,3.5-1.5.8-2.9,1.4-4.6,1.8-2.7.8-5.5.6-8.1-.5-2.1-.8-3.7-2.4-4.6-4.4-1.2-2.3-1.7-4.6-1.8-7.2,0-.5,0-.9.2-1.4.2.5.2,1.1.3,1.5.3,1.4.8,2.7,1.5,4,.9,1.4,2.1,2.3,4,2.4,1.4.2,2.6-.2,4-.6,2.1-.8,4.1-2,6.1-3.4.9-.8,2-1.4,2.9-2.1,2-1.7,4-3.2,6-4.9,1.5-1.4,3.2-2.7,4.7-4.1,1.8-1.5,3.7-2.9,5.8-4,2.6-1.2,5.2-2.3,7.9-2.6,2.4-.2,4.7.3,6.6,1.8,1.5,1.2,2.6,2.7,3.4,4.4.6,1.4,1.1,2.7,1.5,4.1-.2.2-.2.3-.2.5h0Z"/>
    <path class="cls-3" d="M120,167.5c.6.3,1.1.6,1.5.9,1.1.5,2.3.5,3.4,0,1.4-.6,2.4-1.4,3.5-2.4,2.3-2.4,4.6-4.7,6.7-7.2,2.3-2.6,4.7-5,7.5-7.2,2-1.5,4.1-2.7,6.6-3.4,3.2-.9,6.4-.6,9.5.8,2.6,1.1,4.9,2.7,7,4.7l.2.2v.2c-.5-.2-.8-.3-1.2-.6-3.5-1.4-6.9-1.1-10.2.3-2.7,1.2-5.2,2.7-7.3,4.7-4,3.5-7.9,7-11.8,10.7-1.5,1.4-3.2,2.9-5.2,3.8-1.1.6-2.3.9-3.5.9s-2.9-.5-4-1.5c-1.4-1.4-2.1-3.1-2.6-4.9Z"/>
    <path class="cls-5" d="M141,147.2c-.9.9-1.8,1.7-2.7,2.6-1.7,1.8-3.2,3.7-4.7,5.5-1.7,2-3.2,4-4.9,6-1.2,1.4-2.4,2.7-4,3.8-.8.6-1.7,1.1-2.6.9-.5,0-.9-.2-1.4-.3-.3,0-.3-.2-.2-.5.8-1.5,1.4-3.1,2.1-4.6.9-1.7,2-3.2,3.2-4.6,1.7-1.8,3.5-3.5,5.5-4.7,2-1.2,4-2.3,6.1-3.1,1.2-.6,2.4-.8,3.5-1.1h0Z"/>
    <polygon class="cls-3" points="300.8 131.8 288.6 131.8 288.6 103.1 300.8 103.1 300.8 131.8"/>
    <polygon class="cls-3" points="310.7 131.8 302.7 131.8 302.7 103.1 310.7 103.1 310.7 131.8"/>
    <polygon class="cls-3" points="286.3 131.8 272.7 131.8 272.7 103.1 286.3 103.1 286.3 131.8"/>
  </g>
</svg>